PathFileType	4	(X/Y/Z)	C:/Users/Rosti/Documents/GitHub/TechForParalysis/Code/Model/04122019 - Marker Volunteer01/Rosti Data/New Session 103.trc	
DataRate	CameraRate	NumFrames	NumMarkers	Units	OrigDataRate	OrigDataStartFrame	OrigNumFrames	
100.00	100.00	11	14	mm	100.00	1	620	
Frame#	Time	C7			PX			T8			IJ			SC			AC			AI			TS			AA			GH			LE			ME			US			RS			
		X1	Y1	Z1	X2	Y2	Z2	X3	Y3	Z3	X4	Y4	Z4	X5	Y5	Z5	X6	Y6	Z6	X7	Y7	Z7	X8	Y8	Z8	X9	Y9	Z9	X10	Y10	Z10	X11	Y11	Z11	X12	Y12	Z12	X13	Y13	Z13	X14	Y14	Z14	

1	0	15.9432	1533.02	706.065	-19.5265	1294.58	468.514	10.5891	1317.33	769.889	-14.2884	1435.8	539.703	10.932	1443.13	543.823	160.757	1472.12	606.783	96.7748	1451.81	738.582	93.1279	1333.38	769.229	211.027	1425.43	674.434	222.311	1438.44	634.013	253.331	1148.57	554.201	167.471	1131.98	518.358	282.747	896.599	429.501	349.924	932.904	419.61
2	0.01	15.9497	1532.98	706.1	-19.5413	1294.59	468.547	10.5988	1317.31	769.921	-14.2959	1435.81	539.749	10.8721	1443.11	543.862	160.765	1472.09	606.788	96.7963	1451.77	738.582	93.1694	1333.34	769.255	211.045	1425.4	674.453	222.313	1438.41	634.022	253.282	1148.55	554.222	167.546	1131.94	518.485	282.726	896.545	429.535	349.904	932.842	419.728
3	0.02	15.953	1532.94	706.134	-19.5579	1294.6	468.568	10.6085	1317.29	769.955	-14.3057	1435.81	539.792	10.8338	1443.1	543.897	160.76	1472.06	606.8	96.804	1451.74	738.59	93.2004	1333.32	769.279	211.05	1425.38	674.469	222.314	1438.39	634.036	253.24	1148.54	554.228	167.546	1131.94	518.485	282.71	896.495	429.597	349.89	932.783	419.835
4	0.03	15.9534	1532.92	706.165	-19.5781	1294.61	468.58	10.6182	1317.28	769.99	-14.318	1435.82	539.83	10.8094	1443.11	543.928	160.747	1472.03	606.82	96.8	1451.72	738.606	93.2217	1333.3	769.299	211.041	1425.36	674.482	222.312	1438.38	634.055	253.214	1148.55	554.223	167.616	1131.93	518.513	282.691	896.45	429.681	349.879	932.731	419.93
5	0.04	15.9519	1532.91	706.195	-19.6022	1294.64	468.59	10.6279	1317.27	770.027	-14.3321	1435.83	539.865	10.7883	1443.11	543.958	160.732	1472.02	606.846	96.7898	1451.7	738.629	93.2345	1333.29	769.315	211.024	1425.35	674.496	222.304	1438.38	634.077	253.207	1148.58	554.214	167.605	1131.96	518.434	282.669	896.418	429.773	349.868	932.687	420.017
6	0.05	15.9498	1532.91	706.223	-19.6291	1294.66	468.603	10.6376	1317.27	770.065	-14.3476	1435.84	539.896	10.7646	1443.13	543.985	160.72	1472.04	606.875	96.7806	1451.71	738.657	93.2403	1333.29	769.328	211.003	1425.35	674.518	222.286	1438.39	634.102	253.209	1148.64	554.205	167.565	1132.02	518.316	282.648	896.405	429.861	349.853	932.653	420.098
7	0.06	15.9482	1532.92	706.249	-19.656	1294.68	468.623	10.6473	1317.27	770.104	-14.3638	1435.85	539.924	10.7426	1443.14	544.012	160.712	1472.07	606.902	96.7771	1451.72	738.687	93.2409	1333.3	769.339	210.988	1425.36	674.545	222.264	1438.41	634.129	253.214	1148.71	554.198	167.503	1132.09	518.182	282.626	896.409	429.931	349.834	932.628	420.176
8	0.07	15.9472	1532.94	706.273	-19.6802	1294.68	468.647	10.6572	1317.27	770.144	-14.3796	1435.86	539.95	10.7285	1443.15	544.039	160.709	1472.1	606.923	96.7797	1451.73	738.716	93.238	1333.3	769.348	210.985	1425.38	674.57	222.244	1438.43	634.157	253.231	1148.77	554.192	167.439	1132.17	518.057	282.594	896.415	429.973	349.811	932.607	420.252
9	0.08	15.9457	1532.95	706.295	-19.7022	1294.68	468.671	10.6672	1317.27	770.186	-14.3936	1435.87	539.975	10.7232	1443.15	544.068	160.709	1472.13	606.938	96.7849	1451.74	738.744	93.2332	1333.31	769.357	210.992	1425.39	674.586	222.233	1438.44	634.184	253.259	1148.78	554.194	167.395	1132.23	517.971	282.543	896.404	429.988	349.789	932.586	420.327
10	0.09	15.9422	1532.97	706.316	-19.7241	1294.67	468.694	10.6775	1317.28	770.229	-14.4044	1435.87	539.999	10.718	1443.15	544.09	160.709	1472.15	606.949	96.7884	1451.75	738.767	93.2289	1333.31	769.367	211.001	1425.41	674.59	222.235	1438.45	634.204	253.284	1148.78	554.212	167.38	1132.27	517.949	282.483	896.375	429.999	349.771	932.563	420.4
11	0.1	15.9359	1532.97	706.337	-19.7466	1294.66	468.716	10.6883	1317.29	770.273	-14.4113	1435.87	540.023	10.7018	1443.15	544.108	160.704	1472.15	606.954	96.788	1451.76	738.787	93.2273	1333.31	769.377	211.007	1425.43	674.589	222.244	1438.46	634.212	253.29	1148.78	554.249	167.395	1132.27	517.992	282.436	896.344	430.031	349.763	932.541	420.468
